<svg width="32" height="21" viewBox="0 0 32 21" fill="none" xmlns="http://www.w3.org/2000/svg">
<path d="M31 10.5L31.726 11.1877C32.0913 10.802 32.0913 10.198 31.726 9.81225L31 10.5ZM1.5 9.5C0.947715 9.5 0.5 9.94771 0.5 10.5C0.5 11.0523 0.947715 11.5 1.5 11.5V9.5ZM22.726 0.312255C22.3461 -0.0886773 21.7132 -0.105784 21.3123 0.274047C20.9113 0.653878 20.8942 1.28681 21.274 1.68774L22.726 0.312255ZM21.274 19.3123C20.8942 19.7132 20.9113 20.3461 21.3123 20.726C21.7132 21.1058 22.3461 21.0887 22.726 20.6877L21.274 19.3123ZM31 9.5H1.5V11.5H31V9.5ZM21.274 1.68774L30.274 11.1877L31.726 9.81225L22.726 0.312255L21.274 1.68774ZM30.274 9.81225L21.274 19.3123L22.726 20.6877L31.726 11.1877L30.274 9.81225Z" fill="#129FDF"/>
</svg>
