<svg width="15" height="18" viewBox="0 0 15 18" fill="none" xmlns="http://www.w3.org/2000/svg">
<path fill-rule="evenodd" clip-rule="evenodd" d="M0.9375 15.9375H14.0625C14.3111 15.9375 14.5496 16.0363 14.7254 16.2121C14.9012 16.3879 15 16.6264 15 16.875C15 17.1236 14.9012 17.3621 14.7254 17.5379C14.5496 17.7137 14.3111 17.8125 14.0625 17.8125H0.9375C0.68886 17.8125 0.450403 17.7137 0.274588 17.5379C0.0987722 17.3621 0 17.1236 0 16.875C0 16.6264 0.0987722 16.3879 0.274588 16.2121C0.450403 16.0363 0.68886 15.9375 0.9375 15.9375ZM8.4375 10.4766L11.4778 7.43719L12.8034 8.76281L7.5 14.0662L2.19656 8.76281L3.52219 7.43719L6.5625 10.4766V0H8.4375V10.4766Z" fill="#B5BDCA"/>
</svg>
