<svg width="20" height="21" viewBox="0 0 20 21" fill="none" xmlns="http://www.w3.org/2000/svg">
<path d="M14.4197 1.56564C15.6525 1.37182 16.8092 2.21352 17.004 3.44616L17.0815 3.93672C17.1945 4.65156 17.6428 5.26911 18.2876 5.5979L18.7639 5.8408C19.8735 6.40671 20.3164 7.76359 19.7543 8.87518L19.5187 9.34106C19.1934 9.98419 19.1943 10.7439 19.521 11.3862L19.7539 11.8441C20.3208 12.9589 19.875 14.3222 18.7588 14.8866L18.2737 15.1319C17.6254 15.4597 17.1742 16.0791 17.0608 16.7966L16.9839 17.2832C16.7891 18.5155 15.633 19.3571 14.4005 19.1639L13.875 19.0815C13.1626 18.9698 12.4397 19.2045 11.9289 19.7135L11.5762 20.065C10.6906 20.9474 9.25687 20.9435 8.37602 20.0563L8.01446 19.6922C7.49848 19.1725 6.76274 18.9349 6.04026 19.0547L5.57659 19.1316C4.33931 19.3367 3.17149 18.4955 2.97409 17.257L2.89322 16.7496C2.77948 16.036 2.33148 15.4197 1.68775 15.0914L1.23413 14.8601C0.122719 14.2932 -0.319443 12.9332 0.246123 11.8211L0.480314 11.3607C0.808272 10.7158 0.807813 9.95293 0.479079 9.30846L0.255199 8.86956C-0.310395 7.76074 0.126677 6.40331 1.23299 5.83282L1.7256 5.5788C2.36477 5.2492 2.80901 4.63517 2.92212 3.92497L2.99445 3.47083C3.19167 2.23254 4.35896 1.39128 5.59605 1.59587L6.06825 1.67396C6.79185 1.79362 7.52854 1.55485 8.04436 1.03346L8.40315 0.670795C9.28466 -0.220224 10.7228 -0.224083 11.6091 0.662192L11.9582 1.01133C12.4693 1.52243 13.194 1.75835 13.908 1.64609L14.4197 1.56564ZM7.50193 5.36454C7.10413 5.36454 6.72262 5.52257 6.44133 5.80385C6.16004 6.08514 6.00202 6.46665 6.00202 6.86445C6.00202 7.26225 6.16004 7.64376 6.44133 7.92505C6.72262 8.20634 7.10413 8.36436 7.50193 8.36436C7.89973 8.36436 8.28124 8.20634 8.56252 7.92505C8.84381 7.64376 9.00184 7.26225 9.00184 6.86445C9.00184 6.46665 8.84381 6.08514 8.56252 5.80385C8.28124 5.52257 7.89973 5.36454 7.50193 5.36454ZM12.5016 12.3641C12.1038 12.3641 11.7223 12.5221 11.441 12.8034C11.1597 13.0847 11.0017 13.4662 11.0017 13.864C11.0017 14.2618 11.1597 14.6433 11.441 14.9246C11.7223 15.2059 12.1038 15.3639 12.5016 15.3639C12.8994 15.3639 13.2809 15.2059 13.5622 14.9246C13.8435 14.6433 14.0015 14.2618 14.0015 13.864C14.0015 13.4662 13.8435 13.0847 13.5622 12.8034C13.2809 12.5221 12.8994 12.3641 12.5016 12.3641ZM5.70704 14.659C6.09637 15.0483 6.72761 15.0483 7.11695 14.659L14.2965 7.47941C14.6859 7.09008 14.6859 6.45884 14.2965 6.0695C13.9072 5.68016 13.2759 5.68016 12.8866 6.0695L5.70704 13.2491C5.3177 13.6384 5.3177 14.2696 5.70704 14.659Z" fill="#03499E"/>
</svg>
