<svg width="20" height="20" viewBox="0 0 20 20" fill="none" xmlns="http://www.w3.org/2000/svg">
<path d="M10.0391 20C14.31 20 18.0997 17.2395 19.4696 13.1895C19.5531 12.9429 19.4633 12.6705 19.2498 12.5211C19.037 12.3729 18.7503 12.3821 18.5466 12.5457C17.2838 13.5637 15.76 14.1016 14.1406 14.1016C10.2634 14.1016 7.07031 10.9476 7.07031 7.07031C7.07031 4.6459 8.3402 2.38324 10.4024 1.08375C10.6233 0.944687 10.7 0.675195 10.6273 0.42457C10.5552 0.173945 10.3 0 10.0391 0C4.54648 0 0 4.50742 0 10C0 15.4926 4.54648 20 10.0391 20Z" fill="#03499E"/>
<path d="M11.2109 4.72656C12.1802 4.72656 12.9688 5.51508 12.9688 6.48438C12.9688 6.80824 13.2308 7.07031 13.5547 7.07031C13.8786 7.07031 14.1406 6.80824 14.1406 6.48438C14.1406 5.51508 14.9291 4.72656 15.8984 4.72656C16.2223 4.72656 16.4844 4.46449 16.4844 4.14062C16.4844 3.81676 16.2223 3.55469 15.8984 3.55469C14.9291 3.55469 14.1406 2.72711 14.1406 1.75781C14.1406 1.43395 13.8786 1.17188 13.5547 1.17188C13.2308 1.17188 12.9688 1.43395 12.9688 1.75781C12.9688 2.72711 12.1802 3.55469 11.2109 3.55469C10.8871 3.55469 10.625 3.81676 10.625 4.14062C10.625 4.46449 10.8871 4.72656 11.2109 4.72656Z" fill="#03499E"/>
</svg>
