<svg width="15" height="14" viewBox="0 0 15 14" fill="none" xmlns="http://www.w3.org/2000/svg">
<path d="M10.7141 13.4383C9.97665 13.4395 9.24618 13.2944 8.56462 13.0113C7.88305 12.7281 7.26379 12.3126 6.74234 11.7884C6.09031 11.1343 5.20675 10.767 4.28555 10.767C3.36436 10.767 2.48079 11.1343 1.82877 11.7884C1.72929 11.8884 1.61119 11.9677 1.48122 12.0218C1.35125 12.0759 1.21195 12.1038 1.07127 12.1038C0.930586 12.1038 0.791283 12.0759 0.661311 12.0218C0.531339 11.9677 0.413243 11.8884 0.313767 11.7884C0.214291 11.6884 0.135381 11.5697 0.0815453 11.4391C0.0277091 11.3084 -1.04815e-09 11.1684 0 11.027C1.04815e-09 10.8856 0.0277091 10.7456 0.0815453 10.615C0.135381 10.4843 0.214291 10.3656 0.313767 10.2656C1.36819 9.20883 2.7965 8.61538 4.28555 8.61538C5.77461 8.61538 7.20291 9.20883 8.25734 10.2656C8.90964 10.9192 9.7931 11.2862 10.7141 11.2862C11.6351 11.2862 12.5186 10.9192 13.1709 10.2656C13.2704 10.1657 13.3885 10.0863 13.5185 10.0322C13.6484 9.97812 13.7877 9.95026 13.9284 9.95026C14.0691 9.95026 14.2084 9.97812 14.3384 10.0322C14.4683 10.0863 14.5864 10.1657 14.6859 10.2656C14.7854 10.3656 14.8643 10.4843 14.9181 10.615C14.972 10.7456 14.9997 10.8856 14.9997 11.027C14.9997 11.1684 14.972 11.3084 14.9181 11.4391C14.8643 11.5697 14.7854 11.6884 14.6859 11.7884C14.1646 12.3127 13.5453 12.7284 12.8637 13.0115C12.1821 13.2946 11.4516 13.4397 10.7141 13.4383V13.4383ZM10.7141 9.13056C9.97665 9.13179 9.24618 8.98668 8.56462 8.70357C7.88305 8.42045 7.26379 8.00489 6.74234 7.48072C6.09031 6.82664 5.20675 6.4593 4.28555 6.4593C3.36436 6.4593 2.48079 6.82664 1.82877 7.48072C1.62787 7.68265 1.35538 7.79609 1.07127 7.79609C0.787149 7.79609 0.514668 7.68265 0.313767 7.48072C0.112865 7.27879 0 7.00491 0 6.71933C0 6.43376 0.112865 6.15988 0.313767 5.95795C1.36819 4.90114 2.7965 4.30769 4.28555 4.30769C5.77461 4.30769 7.20291 4.90114 8.25734 5.95795C8.90964 6.6115 9.7931 6.97849 10.7141 6.97849C11.6351 6.97849 12.5186 6.6115 13.1709 5.95795C13.3718 5.75602 13.6443 5.64257 13.9284 5.64257C14.2125 5.64257 14.485 5.75602 14.6859 5.95795C14.8868 6.15988 14.9997 6.43376 14.9997 6.71933C14.9997 7.00491 14.8868 7.27879 14.6859 7.48072C14.1646 8.00504 13.5453 8.42069 12.8637 8.70382C12.1821 8.98694 11.4516 9.13197 10.7141 9.13056V9.13056ZM10.7141 4.82287C9.97665 4.8241 9.24618 4.679 8.56462 4.39588C7.88305 4.11276 7.26379 3.6972 6.74234 3.17303C6.09031 2.51895 5.20675 2.15161 4.28555 2.15161C3.36436 2.15161 2.48079 2.51895 1.82877 3.17303C1.72929 3.27302 1.61119 3.35233 1.48122 3.40644C1.35125 3.46055 1.21195 3.4884 1.07127 3.4884C0.930586 3.4884 0.791283 3.46055 0.661311 3.40644C0.531339 3.35233 0.413243 3.27302 0.313766 3.17303C0.21429 3.07304 0.135381 2.95434 0.0815453 2.8237C0.0277091 2.69306 -2.09631e-09 2.55305 0 2.41164C2.09631e-09 2.27024 0.0277091 2.13023 0.0815453 1.99959C0.135381 1.86895 0.214291 1.75025 0.313767 1.65026C1.36819 0.593454 2.7965 0 4.28555 0C5.77461 0 7.20291 0.593454 8.25734 1.65026C8.90964 2.30381 9.7931 2.6708 10.7141 2.6708C11.6351 2.6708 12.5186 2.30381 13.1709 1.65026C13.3718 1.44833 13.6443 1.33489 13.9284 1.33489C14.2125 1.33489 14.485 1.44833 14.6859 1.65026C14.8868 1.85219 14.9997 2.12607 14.9997 2.41164C14.9997 2.69722 14.8868 2.9711 14.6859 3.17303C14.1646 3.69735 13.5453 4.113 12.8637 4.39613C12.1821 4.67925 11.4516 4.82428 10.7141 4.82287V4.82287Z" fill="white"/>
</svg>
