<?xml version="1.0" encoding="UTF-8"?>
<svg xmlns="http://www.w3.org/2000/svg" xmlns:xlink="http://www.w3.org/1999/xlink" width="30pt" height="30pt" viewBox="0 0 30 30" version="1.1">
<g id="surface1">
<path style=" stroke:none;fill-rule:nonzero;fill:rgb(0%,0%,0%);fill-opacity:1;" d="M 22.527344 0.0078125 L 18.632812 0 C 14.257812 0 11.429688 2.902344 11.429688 7.390625 L 11.429688 10.800781 L 7.511719 10.800781 C 7.171875 10.800781 6.898438 11.074219 6.898438 11.414062 L 6.898438 16.351562 C 6.898438 16.691406 7.171875 16.964844 7.511719 16.964844 L 11.429688 16.964844 L 11.429688 29.425781 C 11.429688 29.765625 11.703125 30.039062 12.039062 30.039062 L 17.152344 30.039062 C 17.488281 30.039062 17.761719 29.765625 17.761719 29.425781 L 17.761719 16.964844 L 22.34375 16.964844 C 22.679688 16.964844 22.953125 16.691406 22.953125 16.351562 L 22.957031 11.414062 C 22.957031 11.25 22.890625 11.09375 22.777344 10.980469 C 22.664062 10.867188 22.507812 10.800781 22.34375 10.800781 L 17.761719 10.800781 L 17.761719 7.910156 C 17.761719 6.523438 18.09375 5.816406 19.902344 5.816406 L 22.527344 5.816406 C 22.867188 5.816406 23.140625 5.542969 23.140625 5.203125 L 23.140625 0.617188 C 23.140625 0.28125 22.867188 0.0078125 22.527344 0.0078125 Z M 22.527344 0.0078125 "/>
</g>
</svg>
