<svg width="30" height="30" viewBox="0 0 30 30" fill="none" xmlns="http://www.w3.org/2000/svg">
<circle cx="15" cy="15" r="15" fill="white"/>
<path d="M14.9978 12.3322C13.5289 12.3322 12.3301 13.531 12.3301 15C12.3301 16.469 13.5289 17.6678 14.9978 17.6678C16.4668 17.6678 17.6656 16.469 17.6656 15C17.6656 13.531 16.4668 12.3322 14.9978 12.3322ZM22.9991 15C22.9991 13.8953 23.0091 12.8005 22.9471 11.6978C22.885 10.4169 22.5928 9.28014 21.6562 8.3435C20.7176 7.40487 19.5829 7.11467 18.302 7.05263C17.1973 6.99059 16.1026 7.0006 14.9999 7.0006C13.8951 7.0006 12.8004 6.99059 11.6977 7.05263C10.4168 7.11467 9.28009 7.40687 8.34348 8.3435C7.40486 9.28214 7.11467 10.4169 7.05263 11.6978C6.99059 12.8025 7.0006 13.8973 7.0006 15C7.0006 16.1027 6.99059 17.1995 7.05263 18.3022C7.11467 19.5831 7.40686 20.7199 8.34348 21.6565C9.28209 22.5951 10.4168 22.8853 11.6977 22.9474C12.8024 23.0094 13.8971 22.9994 14.9999 22.9994C16.1046 22.9994 17.1993 23.0094 18.302 22.9474C19.5829 22.8853 20.7196 22.5931 21.6562 21.6565C22.5948 20.7179 22.885 19.5831 22.9471 18.3022C23.0111 17.1995 22.9991 16.1047 22.9991 15ZM14.9978 19.1048C12.7264 19.1048 10.8932 17.2715 10.8932 15C10.8932 12.7285 12.7264 10.8952 14.9978 10.8952C17.2693 10.8952 19.1025 12.7285 19.1025 15C19.1025 17.2715 17.2693 19.1048 14.9978 19.1048ZM19.2707 11.6858C18.7403 11.6858 18.312 11.2575 18.312 10.7271C18.312 10.1968 18.7403 9.76847 19.2707 9.76847C19.801 9.76847 20.2293 10.1968 20.2293 10.7271C20.2294 10.853 20.2048 10.9778 20.1566 11.0942C20.1085 11.2105 20.0379 11.3163 19.9489 11.4053C19.8598 11.4944 19.7541 11.565 19.6377 11.6131C19.5213 11.6612 19.3966 11.6859 19.2707 11.6858Z" fill="#03499E"/>
</svg>
