<?xml version="1.0" encoding="UTF-8" standalone="no"?>
<!DOCTYPE svg PUBLIC "-//W3C//DTD SVG 1.1//EN" "http://www.w3.org/Graphics/SVG/1.1/DTD/svg11.dtd">
<svg version="1.1" xmlns="http://www.w3.org/2000/svg" xmlns:xlink="http://www.w3.org/1999/xlink" preserveAspectRatio="xMidYMid meet" viewBox="0 0 30 30" width="30" height="30"><defs><path d="M21.75 3.92L22.38 4.09L22.97 4.32L23.54 4.61L24.07 4.95L24.56 5.35L25 5.79L25.4 6.27L25.75 6.79L26.04 7.35L26.28 7.94L26.45 8.55L26.56 9.2L26.59 9.86L26.59 20.14L26.56 20.8L26.45 21.44L26.28 22.06L26.04 22.65L25.75 23.2L25.4 23.73L25 24.21L24.56 24.65L24.07 25.04L23.54 25.39L22.97 25.68L22.38 25.91L21.75 26.08L21.1 26.19L20.44 26.22L10.03 26.22L9.36 26.19L8.71 26.08L8.08 25.91L7.49 25.68L6.92 25.39L6.39 25.04L5.9 24.65L5.46 24.21L5.06 23.73L4.71 23.2L4.42 22.65L4.19 22.06L4.01 21.44L3.91 20.8L3.87 20.14L3.87 9.86L3.91 9.2L4.01 8.55L4.19 7.94L4.42 7.35L4.71 6.79L5.06 6.27L5.46 5.79L5.9 5.35L6.39 4.95L6.92 4.61L7.49 4.32L8.08 4.09L8.71 3.92L9.36 3.81L10.03 3.78L20.44 3.78L21.1 3.81L21.75 3.92ZM12.5 9.49L11.35 10.21L10.39 11.16L9.65 12.3L9.18 13.59L9.02 15L9.18 16.4L9.65 17.69L10.39 18.83L11.35 19.78L12.5 20.51L13.81 20.97L15.23 21.13L16.65 20.97L17.96 20.51L19.11 19.78L20.07 18.83L20.81 17.69L21.27 16.4L21.44 15L21.27 13.59L20.81 12.3L20.07 11.16L19.11 10.21L17.96 9.49L16.65 9.02L15.23 8.86L13.81 9.02L12.5 9.49ZM20.29 7.22L19.9 7.79L19.76 8.5L19.9 9.2L20.29 9.78L20.88 10.16L21.59 10.31L22.3 10.16L22.89 9.78L23.28 9.2L23.43 8.5L23.28 7.79L22.89 7.22L22.3 6.82L21.59 6.68L20.88 6.82L20.29 7.22Z" id="b24fErQkae"></path><path d="M21.95 8.15L22.06 8.3L22.1 8.5L22.06 8.69L21.95 8.85L21.79 8.95L21.59 8.99L21.39 8.95L21.24 8.85L21.13 8.69L21.09 8.5L21.13 8.3L21.24 8.15L21.39 8.04L21.59 8L21.79 8.04L21.95 8.15Z" id="b1meTrwlO3"></path><path d="M17.69 10.83L18.68 11.59L19.44 12.56L19.94 13.72L20.11 15L19.94 16.28L19.44 17.43L18.68 18.4L17.69 19.16L16.53 19.64L15.23 19.82L13.93 19.64L12.77 19.16L11.78 18.4L11.01 17.43L10.52 16.28L10.35 15L10.52 13.72L11.01 12.56L11.78 11.59L12.77 10.83L13.93 10.35L15.23 10.17L16.53 10.35L17.69 10.83Z" id="cIj2mAVrM"></path></defs><g><g><g><use xlink:href="#b24fErQkae" opacity="1" fill="#000000" fill-opacity="1"></use><g><use xlink:href="#b24fErQkae" opacity="1" fill-opacity="0" stroke="#000000" stroke-width="1" stroke-opacity="0"></use></g></g><g><use xlink:href="#b1meTrwlO3" opacity="1" fill="#000000" fill-opacity="1"></use><g><use xlink:href="#b1meTrwlO3" opacity="1" fill-opacity="0" stroke="#000000" stroke-width="1" stroke-opacity="0"></use></g></g><g><use xlink:href="#cIj2mAVrM" opacity="1" fill="#000000" fill-opacity="1"></use><g><use xlink:href="#cIj2mAVrM" opacity="1" fill-opacity="0" stroke="#000000" stroke-width="1" stroke-opacity="0"></use></g></g></g></g></svg>