<svg width="30" height="30" viewBox="0 0 30 30" fill="none" xmlns="http://www.w3.org/2000/svg">
<circle opacity="0.1" cx="15" cy="15" r="15" fill="white"/>
<path d="M15.0004 6C12.5433 6 10.5444 8.01341 10.5444 10.4886C10.5444 12.9636 12.5433 14.9761 15.0004 14.9761C17.4574 14.9761 19.4552 12.9636 19.4552 10.4886C19.4552 8.01341 17.4574 6 15.0004 6ZM15.0004 8.6299C16.0173 8.6299 16.8442 9.4641 16.8442 10.4886C16.8442 11.5126 16.0173 12.3462 15.0004 12.3462C13.9832 12.3462 13.1554 11.5127 13.1554 10.4886C13.1554 9.4641 13.9832 8.6299 15.0004 8.6299ZM11.3267 15.1288C10.8858 15.1219 10.4523 15.3408 10.2008 15.7446C9.81649 16.3596 10.0006 17.1713 10.6097 17.5581C11.4154 18.0674 12.2897 18.4287 13.1964 18.6369L10.7063 21.1467C10.1965 21.6605 10.197 22.4927 10.7068 23.0065C10.9624 23.263 11.2957 23.3913 11.6298 23.3913C11.9637 23.3913 12.2981 23.2628 12.5529 23.006L14.9993 20.5402L17.4479 23.006C17.9573 23.5197 18.7832 23.5197 19.2934 23.006C19.8034 22.4925 19.8034 21.6595 19.2934 21.1467L16.8022 18.6375C17.7091 18.4293 18.5837 18.0678 19.3889 17.5582C19.9992 17.1713 20.1836 16.3588 19.7994 15.7446C19.4148 15.1294 18.6095 14.944 17.9987 15.3315C16.1745 16.4875 13.8241 16.4867 12.0004 15.3315C11.7905 15.1983 11.5576 15.1324 11.3267 15.1288V15.1288Z" fill="white"/>
</svg>
