<?xml version="1.0" encoding="UTF-8"?>
<svg xmlns="http://www.w3.org/2000/svg" xmlns:xlink="http://www.w3.org/1999/xlink" width="30pt" height="30pt" viewBox="0 0 30 30" version="1.1">
<g id="surface1">
<path style=" stroke:none;fill-rule:nonzero;fill:rgb(0%,0%,0%);fill-opacity:1;" d="M 5.902344 16.101562 C 5.136719 17.609375 6.003906 18.328125 7.988281 19.558594 C 9.675781 20.601562 12.007812 20.980469 13.507812 21.132812 C 12.890625 21.722656 15.703125 19.019531 7.605469 26.808594 C 5.886719 28.457031 8.652344 31.097656 10.367188 29.484375 L 15.015625 25.003906 C 16.792969 26.714844 18.5 28.355469 19.660156 29.492188 C 21.378906 31.109375 24.140625 28.492188 22.445312 26.816406 C 22.316406 26.695312 16.148438 20.777344 16.523438 21.140625 C 18.039062 20.988281 20.335938 20.582031 22.003906 19.5625 C 23.988281 18.328125 24.859375 17.609375 24.101562 16.101562 C 23.644531 15.246094 22.417969 14.53125 20.777344 15.765625 C 20.777344 15.765625 18.566406 17.460938 15 17.460938 C 11.433594 17.460938 9.222656 15.765625 9.222656 15.765625 C 7.585938 14.523438 6.351562 15.246094 5.902344 16.101562 Z M 5.902344 16.101562 "/>
<path style=" stroke:none;fill-rule:nonzero;fill:rgb(0%,0%,0%);fill-opacity:1;" d="M 15 15.175781 C 19.347656 15.175781 22.894531 11.78125 22.894531 7.597656 C 22.894531 3.398438 19.347656 0 15 0 C 10.648438 0 7.101562 3.398438 7.101562 7.597656 C 7.101562 11.78125 10.648438 15.175781 15 15.175781 Z M 15 3.847656 C 17.136719 3.847656 18.878906 5.523438 18.878906 7.597656 C 18.878906 9.652344 17.136719 11.328125 15 11.328125 C 12.863281 11.328125 11.121094 9.652344 11.121094 7.597656 C 11.117188 5.523438 12.859375 3.847656 15 3.847656 Z M 15 3.847656 "/>
</g>
</svg>
