<svg width="10" height="18" viewBox="0 0 10 18" fill="none" xmlns="http://www.w3.org/2000/svg">
<path d="M5.00037 0C2.54327 0 0.544441 2.01341 0.544441 4.48859C0.544441 6.96358 2.54327 8.97609 5.00037 8.97609C7.45738 8.97609 9.45523 6.96358 9.45523 4.48859C9.45523 2.01341 7.4574 0 5.00037 0ZM5.00037 2.6299C6.0173 2.6299 6.84425 3.4641 6.84425 4.48859C6.84425 5.51264 6.01731 6.34621 5.00037 6.34621C3.98323 6.34621 3.15542 5.51266 3.15542 4.48859C3.15542 3.4641 3.98323 2.6299 5.00037 2.6299ZM1.32666 9.1288C0.88581 9.1219 0.452293 9.34082 0.20081 9.74456C-0.183509 10.3596 0.000597408 11.1713 0.609728 11.5581C1.41545 12.0674 2.28975 12.4287 3.19644 12.6369L0.706296 15.1467C0.196529 15.6605 0.19696 16.4927 0.706831 17.0065C0.962387 17.263 1.2957 17.3913 1.62985 17.3913C1.96366 17.3913 2.29809 17.2628 2.55287 17.006L4.99932 14.5402L7.44792 17.006C7.95726 17.5197 8.78317 17.5197 9.29341 17.006C9.8034 16.4925 9.8034 15.6595 9.29341 15.1467L6.80218 12.6375C7.70913 12.4293 8.58372 12.0678 9.38889 11.5582C9.99923 11.1713 10.1836 10.3588 9.79941 9.74457C9.41478 9.12936 8.60948 8.94403 7.99869 9.33153C6.17451 10.4875 3.82406 10.4867 2.00044 9.33153C1.79053 9.19833 1.55759 9.13243 1.32666 9.12882V9.1288Z" fill="white"/>
</svg>
