<svg width="16" height="13" viewBox="0 0 16 13" fill="none" xmlns="http://www.w3.org/2000/svg">
<path d="M16 1.52048C15.4116 1.77042 14.7713 1.9503 14.1118 2.02036C14.7965 1.61977 15.3093 0.986894 15.5539 0.240481C14.9113 0.616886 14.2074 0.880828 13.4734 1.0206C13.1666 0.697619 12.7955 0.44032 12.3833 0.264732C11.9711 0.089144 11.5266 -0.000969057 11.0775 7.85874e-06C9.26043 7.85874e-06 7.79906 1.45042 7.79906 3.2303C7.79906 3.48024 7.82983 3.73018 7.87982 3.97066C5.159 3.83054 2.73236 2.55054 1.1191 0.590777C0.825142 1.0852 0.671099 1.64815 0.672996 2.22107C0.672996 3.34202 1.25177 4.33042 2.13436 4.91172C1.61424 4.89155 1.1063 4.75077 0.651845 4.50083V4.5406C0.651845 6.1103 1.77863 7.41113 3.28038 7.7103C2.99841 7.78242 2.70834 7.81932 2.41702 7.82012C2.20358 7.82012 2.00168 7.79929 1.79786 7.77089C2.2132 9.05089 3.42267 9.98059 4.86288 10.0109C3.73609 10.88 2.32472 11.3912 0.792213 11.3912C0.517246 11.3912 0.26343 11.3818 0 11.3515C1.45367 12.2698 3.17846 12.8 5.03593 12.8C11.066 12.8 14.3656 7.88071 14.3656 3.61089C14.3656 3.47078 14.3656 3.33066 14.356 3.19054C14.9944 2.73042 15.5539 2.16048 16 1.52048Z" fill="#03499E"/>
</svg>
