<svg width="30" height="30" viewBox="0 0 30 30" fill="none" xmlns="http://www.w3.org/2000/svg">
<circle cx="15" cy="15" r="15" fill="white"/>
<path d="M23 10.5205C22.4116 10.7704 21.7713 10.9503 21.1118 11.0204C21.7965 10.6198 22.3093 9.98689 22.5539 9.24048C21.9113 9.61689 21.2074 9.88083 20.4734 10.0206C20.1666 9.69762 19.7955 9.44032 19.3833 9.26473C18.9711 9.08914 18.5266 8.99903 18.0775 9.00001C16.2604 9.00001 14.7991 10.4504 14.7991 12.2303C14.7991 12.4802 14.8298 12.7302 14.8798 12.9707C12.159 12.8305 9.73236 11.5505 8.1191 9.59078C7.82514 10.0852 7.6711 10.6482 7.673 11.2211C7.673 12.342 8.25177 13.3304 9.13436 13.9117C8.61424 13.8916 8.1063 13.7508 7.65184 13.5008V13.5406C7.65184 15.1103 8.77863 16.4111 10.2804 16.7103C9.99841 16.7824 9.70834 16.8193 9.41702 16.8201C9.20358 16.8201 9.00168 16.7993 8.79786 16.7709C9.2132 18.0509 10.4227 18.9806 11.8629 19.0109C10.7361 19.88 9.32472 20.3912 7.79221 20.3912C7.51725 20.3912 7.26343 20.3818 7 20.3515C8.45367 21.2698 10.1785 21.8 12.0359 21.8C18.066 21.8 21.3656 16.8807 21.3656 12.6109C21.3656 12.4708 21.3656 12.3307 21.356 12.1905C21.9944 11.7304 22.5539 11.1605 23 10.5205Z" fill="#03499E"/>
</svg>
