<?xml version="1.0" encoding="UTF-8"?>
<svg xmlns="http://www.w3.org/2000/svg" xmlns:xlink="http://www.w3.org/1999/xlink" width="30pt" height="30pt" viewBox="0 0 30 30" version="1.1">
<g id="surface1">
<path style=" stroke:none;fill-rule:nonzero;fill:rgb(0%,0%,0%);fill-opacity:1;" d="M 26.820312 12.683594 C 29.925781 8.480469 29.238281 8.402344 30 7.089844 L 24.050781 7.089844 C 24.050781 7.089844 23.628906 8.558594 23.5 8.820312 C 22.355469 11.144531 19.792969 14.632812 18.242188 14.988281 C 16.71875 15.339844 16.921875 11.730469 17.015625 10.167969 C 17.101562 8.722656 17.085938 8.214844 17.046875 7.964844 C 16.984375 7.597656 16.675781 7.332031 16.308594 7.285156 C 15.550781 7.191406 14.171875 7.054688 12.632812 7.125 L 11.25 7.171875 C 11.796875 8.386719 12.164062 8.015625 12.363281 9.421875 C 12.589844 11.070312 12.5 15.078125 10.878906 15.078125 C 8.277344 15.078125 5.355469 7.265625 5.261719 7.089844 L 0 7.089844 L 0.480469 8.292969 C 4.363281 18.011719 9.21875 22.511719 15.859375 22.886719 L 16.722656 22.910156 L 16.785156 22.070312 C 16.878906 20.773438 17.527344 18.910156 18.679688 18.910156 C 20.386719 18.910156 20.878906 19.40625 22 20.792969 C 23.082031 22.125 23.828125 22.910156 25.570312 22.910156 L 30 22.910156 L 29.367188 21.640625 C 28.382812 19.660156 26.402344 17.960938 25.628906 16.976562 C 25.351562 16.605469 25.074219 16.019531 25.359375 15.3125 C 25.59375 14.691406 26.289062 13.40625 26.820312 12.683594 Z M 26.820312 12.683594 "/>
</g>
</svg>
