<?xml version="1.0" encoding="UTF-8"?>
<svg xmlns="http://www.w3.org/2000/svg" xmlns:xlink="http://www.w3.org/1999/xlink" width="30pt" height="30pt" viewBox="0 0 30 30" version="1.1">
<g id="surface1">
<path style=" stroke:none;fill-rule:nonzero;fill:rgb(0%,0%,0%);fill-opacity:1;" d="M 28.484375 7.976562 C 28.160156 6.769531 27.210938 5.820312 26.003906 5.496094 C 23.800781 4.890625 14.992188 4.890625 14.992188 4.890625 C 14.992188 4.890625 6.183594 4.890625 3.984375 5.472656 C 2.800781 5.796875 1.828125 6.769531 1.503906 7.976562 C 0.921875 10.175781 0.921875 14.742188 0.921875 14.742188 C 0.921875 14.742188 0.921875 19.332031 1.503906 21.511719 C 1.828125 22.71875 2.777344 23.667969 3.984375 23.992188 C 6.207031 24.59375 14.996094 24.59375 14.996094 24.59375 C 14.996094 24.59375 23.800781 24.59375 26.003906 24.015625 C 27.210938 23.691406 28.160156 22.742188 28.484375 21.535156 C 29.066406 19.332031 29.066406 14.765625 29.066406 14.765625 C 29.066406 14.765625 29.089844 10.175781 28.484375 7.976562 Z M 12.1875 18.960938 L 12.1875 10.523438 L 19.515625 14.742188 Z M 12.1875 18.960938 "/>
</g>
</svg>
