<svg width="16" height="12" viewBox="0 0 16 12" fill="none" xmlns="http://www.w3.org/2000/svg">
<path d="M15.6661 1.75179C15.575 1.41257 15.3964 1.10322 15.1482 0.854707C14.9 0.606191 14.5909 0.427224 14.2518 0.335714C13.0036 6.81196e-08 8 0 8 0C8 0 2.99643 -6.81196e-08 1.74821 0.333928C1.40897 0.425141 1.09969 0.60401 0.851439 0.852571C0.603191 1.10113 0.424713 1.41064 0.333929 1.75C-6.81196e-08 3 0 5.60714 0 5.60714C0 5.60714 -6.81196e-08 8.21429 0.333929 9.4625C0.517857 10.1518 1.06071 10.6946 1.74821 10.8786C2.99643 11.2143 8 11.2143 8 11.2143C8 11.2143 13.0036 11.2143 14.2518 10.8786C14.9411 10.6946 15.4821 10.1518 15.6661 9.4625C16 8.21429 16 5.60714 16 5.60714C16 5.60714 16 3 15.6661 1.75179ZM6.41071 8V3.21429L10.5536 5.58929L6.41071 8Z" fill="#03499E"/>
</svg>
