<svg width="30" height="30" viewBox="0 0 30 30" fill="none" xmlns="http://www.w3.org/2000/svg">
<circle cx="15" cy="15" r="15" fill="white"/>
<path d="M22.6661 10.7518C22.575 10.4126 22.3964 10.1032 22.1482 9.85471C21.9 9.60619 21.5909 9.42722 21.2518 9.33571C20.0036 9 15 9 15 9C15 9 9.99643 9 8.74821 9.33393C8.40897 9.42514 8.09969 9.60401 7.85144 9.85257C7.60319 10.1011 7.42471 10.4106 7.33393 10.75C7 12 7 14.6071 7 14.6071C7 14.6071 7 17.2143 7.33393 18.4625C7.51786 19.1518 8.06071 19.6946 8.74821 19.8786C9.99643 20.2143 15 20.2143 15 20.2143C15 20.2143 20.0036 20.2143 21.2518 19.8786C21.9411 19.6946 22.4821 19.1518 22.6661 18.4625C23 17.2143 23 14.6071 23 14.6071C23 14.6071 23 12 22.6661 10.7518ZM13.4107 17V12.2143L17.5536 14.5893L13.4107 17Z" fill="#03499E"/>
</svg>
