<svg width="19" height="19" viewBox="0 0 19 19" fill="none" xmlns="http://www.w3.org/2000/svg">
<path d="M8 16.1428C9.77498 16.1425 11.4988 15.5483 12.897 14.4548L17.293 18.8508L18.707 17.4368L14.311 13.0408C15.405 11.6425 15.9996 9.91826 16 8.14282C16 3.73182 12.411 0.142822 8 0.142822C3.589 0.142822 0 3.73182 0 8.14282C0 12.5538 3.589 16.1428 8 16.1428ZM8 2.14282C11.309 2.14282 14 4.83382 14 8.14282C14 11.4518 11.309 14.1428 8 14.1428C4.691 14.1428 2 11.4518 2 8.14282C2 4.83382 4.691 2.14282 8 2.14282Z" fill="white"/>
</svg>
