<svg width="15" height="14" viewBox="0 0 15 14" fill="none" xmlns="http://www.w3.org/2000/svg">
<path d="M6.84868 11.6826L6.84857 11.6825C6.16848 11.0003 5.24673 10.617 4.28555 10.617C3.32438 10.617 2.40262 11.0003 1.72253 11.6825L1.72243 11.6826C1.63685 11.7686 1.53529 11.8368 1.42357 11.8833C1.31185 11.9299 1.19214 11.9538 1.07127 11.9538C0.950391 11.9538 0.830681 11.9299 0.718964 11.8833C0.607245 11.8368 0.505686 11.7686 0.420104 11.6826L0.313767 11.7884L0.420104 11.6826C0.33452 11.5966 0.26659 11.4944 0.220231 11.3819L0.0815453 11.4391L0.220231 11.3819C0.173871 11.2694 0.15 11.1488 0.15 11.027C0.15 10.9052 0.173871 10.7846 0.220231 10.6721C0.266581 10.5596 0.334494 10.4575 0.420056 10.3715C1.44641 9.34286 2.8365 8.76538 4.28555 8.76538C5.73465 8.76538 7.12479 9.3429 8.15115 10.3716L8.15117 10.3716C8.83153 11.0533 9.75316 11.4362 10.7141 11.4362C11.6751 11.4362 12.5967 11.0533 13.2771 10.3716L13.2772 10.3714C13.3628 10.2854 13.4644 10.2172 13.5761 10.1707C13.6878 10.1242 13.8075 10.1003 13.9284 10.1003C14.0493 10.1003 14.169 10.1242 14.2807 10.1707C14.3924 10.2172 14.494 10.2854 14.5796 10.3714C14.6652 10.4575 14.7331 10.5596 14.7794 10.6721C14.8258 10.7846 14.8497 10.9052 14.8497 11.027C14.8497 11.1488 14.8258 11.2694 14.7794 11.3819C14.7331 11.4944 14.6652 11.5966 14.5796 11.6826L14.5795 11.6826C14.0721 12.193 13.4695 12.5975 12.8062 12.873C12.1429 13.1485 11.4321 13.2896 10.7144 13.2883L10.7139 13.2883C9.99625 13.2894 9.28543 13.1482 8.62216 12.8727C7.95889 12.5972 7.35621 12.1928 6.84868 11.6826ZM6.84868 7.37493L6.84857 7.37482C6.16848 6.69259 5.24673 6.3093 4.28555 6.3093C3.32438 6.3093 2.40262 6.69259 1.72253 7.37482L1.72243 7.37492C1.5496 7.54864 1.31535 7.64609 1.07127 7.64609C0.82718 7.64609 0.592934 7.54864 0.420104 7.37492C0.247247 7.20118 0.15 6.96537 0.15 6.71933C0.15 6.47337 0.247189 6.23763 0.419952 6.0639C1.44632 5.03521 2.83645 4.45769 4.28555 4.45769C5.73465 4.45769 7.12479 5.03521 8.15115 6.0639L8.15117 6.06391C8.83153 6.74558 9.75316 7.12849 10.7141 7.12849C11.6751 7.12849 12.5967 6.74558 13.2771 6.06391L13.2772 6.06374C13.4501 5.89003 13.6843 5.79257 13.9284 5.79257C14.1725 5.79257 14.4067 5.89003 14.5796 6.06374C14.7524 6.23749 14.8497 6.4733 14.8497 6.71933C14.8497 6.96537 14.7524 7.20118 14.5796 7.37492L14.5795 7.37495C14.0721 7.88526 13.4695 8.28977 12.8062 8.56529C12.1429 8.84081 11.4321 8.98193 10.7144 8.98056L10.7139 8.98056C9.99625 8.98176 9.28543 8.84056 8.62216 8.56504C7.95889 8.28953 7.35621 7.88511 6.84868 7.37493ZM10.7144 4.67287L10.7139 4.67287C9.99625 4.67407 9.28543 4.53287 8.62216 4.25735C7.95889 3.98184 7.35621 3.57742 6.84868 3.06724L6.84857 3.06713C6.16848 2.3849 5.24673 2.00161 4.28555 2.00161C3.32438 2.00161 2.40262 2.3849 1.72253 3.06713L1.72243 3.06724C1.63685 3.15326 1.53529 3.22145 1.42357 3.26796C1.31185 3.31448 1.19214 3.3384 1.07127 3.3384C0.950391 3.3384 0.830681 3.31448 0.718964 3.26796C0.607246 3.22145 0.505686 3.15326 0.420103 3.06724C0.334519 2.98121 0.26659 2.87905 0.220231 2.76655C0.173871 2.65405 0.15 2.53345 0.15 2.41164C0.15 2.28983 0.173871 2.16924 0.220231 2.05674C0.26658 1.94427 0.33449 1.84212 0.420047 1.75611C1.44641 0.727487 2.8365 0.15 4.28555 0.15C5.73465 0.15 7.12479 0.727523 8.15115 1.75621L8.15117 1.75623C8.83153 2.43789 9.75316 2.8208 10.7141 2.8208C11.6751 2.8208 12.5967 2.43789 13.2771 1.75623L13.2772 1.75606C13.4501 1.58234 13.6843 1.48489 13.9284 1.48489C14.1725 1.48489 14.4067 1.58234 14.5796 1.75606C14.7524 1.9298 14.8497 2.16561 14.8497 2.41164C14.8497 2.65768 14.7524 2.89349 14.5796 3.06724L14.5795 3.06727C14.0721 3.57757 13.4695 3.98208 12.8062 4.2576C12.1429 4.53312 11.4321 4.67424 10.7144 4.67287Z" fill="#36424F" stroke="#FFDA50" stroke-width="0.3"/>
</svg>
