<svg width="20" height="20" viewBox="0 0 20 20" fill="none" xmlns="http://www.w3.org/2000/svg">
<path d="M9.72222 0.277832C4.3533 0.277832 0 4.63113 0 10.0001C0 15.369 4.3533 19.7223 9.72222 19.7223C15.0911 19.7223 19.4444 15.369 19.4444 10.0001C19.4444 4.63113 15.0911 0.277832 9.72222 0.277832ZM9.72222 18.073C5.26476 18.073 1.64931 14.4575 1.64931 10.0001C1.64931 5.54259 5.26476 1.92714 9.72222 1.92714C14.1797 1.92714 17.7951 5.54259 17.7951 10.0001C17.7951 14.4575 14.1797 18.073 9.72222 18.073Z" fill="#B5BDCA"/>
<path d="M13.5135 12.7474L10.4189 10.51V5.13894C10.4189 5.04346 10.3408 4.96533 10.2453 4.96533H9.20144C9.10596 4.96533 9.02783 5.04346 9.02783 5.13894V11.1155C9.02783 11.1719 9.05387 11.224 9.09945 11.2566L12.6889 13.8738C12.767 13.9302 12.8755 13.9128 12.9319 13.8369L13.5526 12.9905C13.609 12.9102 13.5916 12.8017 13.5135 12.7474Z" fill="#B5BDCA"/>
</svg>
